<svg width="400" height="300" xmlns="http://www.w3.org/2000/svg">
  <defs>
    <linearGradient id="gradLinks" x1="0%" y1="0%" x2="100%" y2="100%">
      <stop offset="0%" style="stop-color:#a8edea;stop-opacity:1" />
      <stop offset="100%" style="stop-color:#fed6e3;stop-opacity:1" />
    </linearGradient>
  </defs>
  <rect width="400" height="300" fill="url(#gradLinks)" rx="15"/>

  <!-- Light bulb (idea) icon -->
  <g transform="translate(200, 150)">
    <!-- Bulb -->
    <circle cx="0" cy="-20" r="35" fill="white" opacity="0.95"/>
    <path d="M -25,-20 Q -25,10 -20,20 L 20,20 Q 25,10 25,-20" fill="white" opacity="0.95"/>

    <!-- Bulb base/socket -->
    <rect x="-20" y="20" width="40" height="8" fill="rgba(168, 237, 234, 0.5)" rx="2"/>
    <rect x="-20" y="28" width="40" height="8" fill="rgba(168, 237, 234, 0.5)" rx="2"/>
    <rect x="-15" y="36" width="30" height="10" fill="rgba(168, 237, 234, 0.6)" rx="3"/>

    <!-- Light rays -->
    <line x1="-50" y1="-50" x2="-60" y2="-60" stroke="white" stroke-width="4" stroke-linecap="round" opacity="0.9"/>
    <line x1="50" y1="-50" x2="60" y2="-60" stroke="white" stroke-width="4" stroke-linecap="round" opacity="0.9"/>
    <line x1="-55" y1="-10" x2="-70" y2="-10" stroke="white" stroke-width="4" stroke-linecap="round" opacity="0.9"/>
    <line x1="55" y1="-10" x2="70" y2="-10" stroke="white" stroke-width="4" stroke-linecap="round" opacity="0.9"/>
    <line x1="0" y1="-60" x2="0" y2="-75" stroke="white" stroke-width="4" stroke-linecap="round" opacity="0.9"/>

    <!-- Filament -->
    <path d="M -8,-35 Q -8,-25 0,-25 Q 8,-25 8,-35" fill="none" stroke="rgba(168, 237, 234, 0.6)" stroke-width="3"/>
  </g>
</svg>
